<svg width="51" height="21" viewBox="0 0 51 21" fill="none" xmlns="http://www.w3.org/2000/svg">
<path d="M17.593 4.18733C19.3988 9.70021 20.083 19.5347 25.3642 19.5347C25.7662 19.5347 26.1725 19.4954 26.5802 19.4179C21.7795 18.3006 21.2104 8.57308 18.2811 3.53564C18.0474 3.74838 17.8181 3.96565 17.593 4.18733Z" fill="url(#paint0_linear_890_222)"/>
<path d="M18.2812 3.53565C21.2107 8.57309 21.7796 18.3006 26.5804 19.4179C26.9576 19.3488 27.3355 19.2442 27.7143 19.1122C23.4052 17.0049 22.2142 7.55868 18.8872 3.01123C18.6819 3.18218 18.4798 3.35709 18.2812 3.53585" fill="url(#paint1_linear_890_222)"/>
<path d="M22.5025 0.539575C22.1013 0.539575 21.6941 0.578916 21.2856 0.656418C20.217 0.857451 19.1314 1.31676 18.0371 2.01172C18.336 2.30619 18.6204 2.64315 18.888 3.01099C20.001 2.08903 21.1067 1.40783 22.2085 0.998293C22.6105 0.848115 23.0249 0.733133 23.447 0.654648C23.1382 0.577104 22.8209 0.538446 22.5025 0.539575Z" fill="#14559A"/>
<path d="M31.0782 17.1695C31.5373 16.8034 31.9794 16.4166 32.4032 16.0103C30.5682 10.523 29.9114 0.547852 24.5932 0.547852C24.2128 0.547852 23.8292 0.583259 23.4463 0.654073C28.2906 1.85673 28.9111 12.3773 31.0784 17.1695" fill="url(#paint2_linear_890_222)"/>
<path d="M23.4465 0.65433C23.1376 0.576889 22.8204 0.538298 22.502 0.539454L24.5933 0.547125C24.213 0.547125 23.8293 0.582729 23.4465 0.65433Z" fill="#3092C4"/>
<path d="M30.985 18.3352C30.7771 18.1374 30.5797 17.9202 30.3854 17.6885C29.4907 18.3207 28.5996 18.8003 27.7139 19.1122C28.03 19.2672 28.3648 19.3811 28.71 19.451C28.9893 19.5074 29.2736 19.5355 29.5585 19.5348C30.5523 19.5348 31.338 19.4173 32.007 19.0971C31.6385 18.8984 31.3009 18.6407 30.985 18.3352Z" fill="#1969BC"/>
<path d="M22.208 0.999075C26.5468 3.26434 26.924 13.5229 30.3861 17.6884C30.6218 17.5222 30.8524 17.3492 31.0778 17.1695C28.9106 12.3773 28.2908 1.85593 23.4475 0.654053C23.0252 0.733402 22.6105 0.848834 22.208 0.999075Z" fill="url(#paint3_linear_890_222)"/>
<path d="M18.8877 3.01125C22.2144 7.55869 23.4057 17.0047 27.7147 19.1122C28.6005 18.8002 29.4918 18.3207 30.3863 17.6885C26.9241 13.523 26.547 3.26441 22.2081 0.999146C21.1066 1.4079 20.0007 2.08909 18.8877 3.01105" fill="url(#paint4_linear_890_222)"/>
<path d="M15.4647 4.05458C14.9432 5.23147 14.4106 6.77837 13.7666 8.79755C15.0473 6.99651 16.3238 5.4445 17.5933 4.18755C17.4185 3.65094 17.2307 3.15622 17.0283 2.71521C16.4834 3.13328 15.9614 3.58045 15.4649 4.05478" fill="url(#paint5_linear_890_222)"/>
<path d="M17.4902 2.37561C17.3344 2.48629 17.1804 2.59948 17.0283 2.71512C17.2307 3.15594 17.4175 3.65066 17.5925 4.18727C17.818 3.966 18.0474 3.74874 18.2806 3.53558C18.0349 3.11404 17.7738 2.72476 17.4902 2.37561Z" fill="#2B74B1"/>
<path d="M18.0365 2.01192C17.8518 2.1291 17.6696 2.2503 17.4902 2.37543C17.774 2.72458 18.0349 3.11386 18.2816 3.53619C18.4798 3.35676 18.6818 3.18165 18.8876 3.01098C18.6202 2.64334 18.3358 2.30619 18.0367 2.01172" fill="#125A9E"/>
<path d="M47.6327 0.11984C45.1788 9.56664 40.0533 17.1542 35.756 19.0671H35.7481C35.6699 19.1025 35.5924 19.1348 35.516 19.1661C35.5053 19.1726 35.4957 19.1734 35.4876 19.1771C35.4651 19.1861 35.4442 19.1932 35.4216 19.2023C35.4109 19.2086 35.4015 19.2107 35.3918 19.2145C35.3556 19.2275 35.3201 19.2383 35.2846 19.2524C35.2693 19.2589 35.2549 19.2629 35.2403 19.268C35.2229 19.2747 35.2051 19.2804 35.1871 19.2853C35.1709 19.2916 35.154 19.2963 35.1355 19.3034C35.1201 19.3097 35.1039 19.3124 35.0895 19.3187C35.058 19.3278 35.0292 19.3354 34.9977 19.3463C34.9847 19.3463 34.9727 19.3533 34.9591 19.3569C34.9396 19.3632 34.9177 19.3677 34.8968 19.3736C34.8824 19.3799 34.8704 19.3821 34.855 19.3852C34.8334 19.3915 34.8091 19.3974 34.7873 19.4025L34.7051 19.4206C34.9019 19.493 35.1101 19.5296 35.3199 19.5284C39.3947 19.5284 43.503 12.2393 50.3009 0.117676H47.6317L47.6327 0.11984Z" fill="url(#paint6_linear_890_222)"/>
<path d="M12.8818 0.922958C12.8844 0.922958 12.8877 0.916664 12.8891 0.916664C12.8925 0.916664 12.8974 0.916664 12.899 0.910369H12.9041C12.9266 0.902501 12.9474 0.893649 12.9701 0.885191C12.976 0.885191 12.979 0.885191 12.9831 0.878896C12.9888 0.878896 12.9943 0.872405 13.0001 0.871618C13.0241 0.863947 13.0483 0.854898 13.071 0.846637H13.0747C13.1287 0.830507 13.1788 0.810443 13.231 0.791756C13.2385 0.791756 13.2456 0.785461 13.2545 0.785461C13.2761 0.77838 13.2988 0.770708 13.3215 0.765594C13.3319 0.759102 13.3423 0.759102 13.352 0.755758C13.3753 0.748874 13.3979 0.741005 13.4196 0.735891C13.4295 0.735891 13.4381 0.7294 13.4454 0.72881C13.5203 0.708156 13.5946 0.688878 13.6695 0.670978C13.6799 0.670978 13.6888 0.664487 13.7 0.663897C13.7217 0.657602 13.742 0.654061 13.7654 0.650914C13.7751 0.64462 13.7863 0.64462 13.7976 0.641276C13.8192 0.634981 13.8403 0.634194 13.8638 0.62908H13.8789C13.9243 0.619835 13.9702 0.61236 14.0153 0.603901H14.0427C14.0644 0.597607 14.0837 0.59682 14.1056 0.592886C14.1174 0.592886 14.1296 0.586591 14.141 0.586591C14.1611 0.586591 14.1812 0.5801 14.2013 0.577543C14.212 0.577543 14.2222 0.577543 14.2344 0.571052C14.2819 0.564757 14.331 0.5622 14.381 0.558266C14.237 0.543809 14.0923 0.53626 13.9475 0.535645C9.35881 0.535645 3.03637 9.03471 0.188477 20.0412H0.737285C1.64868 18.4188 2.46746 16.8839 3.21629 15.443C5.21072 7.64696 9.27328 2.33039 12.882 0.921778" fill="url(#paint7_linear_890_222)"/>
<path d="M15.4648 4.05452C15.9614 3.58019 16.4832 3.13301 17.0281 2.71495C16.9173 2.46887 16.793 2.22906 16.6559 1.99658C16.2361 2.50507 15.8525 3.17603 15.4648 4.05452Z" fill="#0D82CA"/>
<path d="M15.8423 0.987466C16.1418 1.23846 16.4104 1.58349 16.6562 1.99716C16.7336 1.90215 16.8118 1.81442 16.893 1.73239C16.5521 1.41471 16.184 1.15408 15.7842 0.957764C15.8003 0.966615 15.8165 0.973894 15.8332 0.980975C15.8332 0.980975 15.8396 0.987466 15.8423 0.987466Z" fill="#0D82CA"/>
<path d="M3.21582 15.444C7.40017 7.39541 9.38258 2.30152 12.8818 0.922607C9.2738 2.3322 5.21045 7.64877 3.21602 15.444" fill="url(#paint8_linear_890_222)"/>
<path d="M16.8921 1.73218C16.8108 1.81499 16.7335 1.90193 16.6553 1.99694C16.7925 2.22944 16.917 2.46918 17.0283 2.71512C17.1804 2.59954 17.3344 2.48642 17.4902 2.3758C17.3062 2.14758 17.1063 1.93251 16.8921 1.73218Z" fill="#127BCA"/>
<path d="M5.11567 20.0061C5.08985 20.0126 5.06404 20.0126 5.0398 20.0151H5.02541C5.00354 20.0151 4.98088 20.0216 4.96078 20.0216H4.95033C4.89792 20.0279 4.84629 20.0279 4.79643 20.0318H4.78027C9.01526 19.9136 10.951 17.7971 11.9118 14.7273C12.6419 12.4001 13.2414 10.4395 13.7669 8.79443C11.993 11.2867 10.2112 14.2575 8.41975 17.5856C7.55585 19.1896 6.24225 19.8595 5.11547 20.0031" fill="url(#paint9_linear_890_222)"/>
<path d="M5.11543 20.0044C6.24202 19.8612 7.55561 19.192 8.41952 17.5869C10.211 14.2598 11.9938 11.2882 13.7657 8.7959C14.4105 6.77573 14.9426 5.22963 15.4648 4.05273C11.9325 7.40893 8.38641 12.9895 5.11523 20.0028" fill="url(#paint10_linear_890_222)"/>
<path d="M3.2163 15.4442C2.46748 16.8849 1.6487 18.4198 0.737305 20.0424H2.33368C2.53528 18.4937 2.83002 16.9584 3.2163 15.445" fill="#05A1E6"/>
<path d="M14.2345 0.57523C14.2215 0.57523 14.2119 0.581525 14.2006 0.581525C14.1813 0.588016 14.1612 0.588016 14.1409 0.589983C14.1291 0.589983 14.1177 0.589983 14.1055 0.596474C14.0838 0.602769 14.0637 0.603359 14.0426 0.60749C14.0329 0.60749 14.0233 0.60749 14.0152 0.613784C13.9693 0.621456 13.9242 0.629914 13.8792 0.637586H13.8639C13.8404 0.644077 13.8193 0.647421 13.7976 0.650568C13.7864 0.656863 13.7752 0.656863 13.7645 0.65942C13.7429 0.665912 13.7212 0.668469 13.7001 0.672403C13.6889 0.678697 13.68 0.678697 13.6696 0.679288C13.5947 0.697384 13.5204 0.716662 13.4455 0.737316C13.4376 0.737316 13.4293 0.74361 13.4197 0.744987C13.3972 0.751282 13.3754 0.757773 13.3519 0.764855C13.3422 0.771346 13.331 0.771346 13.3214 0.773903C13.2989 0.780107 13.2766 0.786731 13.2544 0.79377C13.2457 0.79377 13.2384 0.800065 13.2303 0.800065C13.1787 0.819342 13.1278 0.838816 13.0746 0.854749C13.0522 0.861831 13.0279 0.870879 13.0037 0.879337C12.994 0.885632 12.9854 0.887206 12.9741 0.891533C12.9515 0.898615 12.9288 0.907663 12.9079 0.915925C12.9 0.922416 12.8918 0.923006 12.8863 0.92635C9.38708 2.30526 7.40447 7.39895 3.22032 15.4476C2.8337 16.961 2.53902 18.4963 2.33789 20.0452H2.56195C3.19293 20.0452 3.37107 20.0387 4.09703 20.0387H4.80073C4.85059 20.0324 4.90222 20.0324 4.95444 20.0283H4.96429C4.98597 20.0283 5.00764 20.022 5.02873 20.022H5.0441C5.06735 20.022 5.09396 20.0157 5.11977 20.0129C8.39095 12.9996 11.9368 7.41902 15.4693 4.06282C15.8575 3.18453 16.2404 2.51357 16.6595 2.00587C16.4144 1.5924 16.146 1.24659 15.8463 0.99559C15.8463 0.99559 15.8382 0.99559 15.8376 0.989099C15.8205 0.982214 15.8045 0.973756 15.7875 0.965494C15.7706 0.956249 15.756 0.949168 15.7383 0.940316C15.7218 0.933391 15.7057 0.925644 15.69 0.917105C15.6691 0.910614 15.6522 0.901565 15.6336 0.893303C15.6183 0.886812 15.6047 0.880321 15.5893 0.874026C15.5581 0.861932 15.5272 0.849011 15.4967 0.835275C15.4829 0.828981 15.4701 0.82544 15.4573 0.820522C15.4338 0.812003 15.4106 0.802819 15.3877 0.792984C15.3765 0.786492 15.3637 0.785115 15.3507 0.780591C15.3178 0.769575 15.2854 0.75797 15.2549 0.747741H15.2468C15.2098 0.735545 15.1735 0.726497 15.1357 0.716268C15.1268 0.709777 15.1195 0.709777 15.1107 0.7084C15.0775 0.699548 15.0486 0.690696 15.0172 0.682238C15.0094 0.682238 15.0019 0.675747 14.9956 0.675747C14.9185 0.656038 14.8407 0.639111 14.7624 0.624997C14.7546 0.624997 14.7465 0.618505 14.7384 0.618505C14.7051 0.611888 14.6715 0.606508 14.6377 0.602376C14.6294 0.596081 14.6247 0.596081 14.6176 0.596081C14.5779 0.59001 14.5381 0.584829 14.4982 0.580541H14.4773C14.445 0.574247 14.4152 0.573656 14.3855 0.570312C14.3346 0.576607 14.2864 0.579361 14.2387 0.583885" fill="url(#paint11_linear_890_222)"/>
<path d="M38.0468 5.34963C37.2419 7.92392 36.5898 10.0476 36.0225 11.7949C38.2315 8.76051 40.4074 4.94324 42.4795 0.538208C40.0626 1.29592 38.773 3.03047 38.0468 5.34963Z" fill="url(#paint12_linear_890_222)"/>
<path d="M36.0928 18.9063C35.9801 18.9637 35.8672 19.0182 35.7559 19.0672C40.0531 17.1542 45.1786 9.56667 47.6326 0.119873H47.1352C41.4974 10.1731 39.684 16.9032 36.0928 18.9063Z" fill="url(#paint13_linear_890_222)"/>
<path d="M33.2871 18.0618C34.222 16.9226 34.9836 14.9863 36.0233 11.7949C34.824 13.4394 33.6168 14.8527 32.4087 16.0056C32.4087 16.0119 32.4086 16.0119 32.4023 16.0158C32.6658 16.8042 32.9551 17.5 33.2848 18.0616" fill="#079AE1"/>
<path d="M33.2865 18.0618C32.9683 18.4493 32.6313 18.7447 32.2565 18.9635C32.1743 19.0111 32.0914 19.0559 32.0068 19.0972C32.4135 19.317 32.8585 19.457 33.3179 19.5097C33.3888 19.5168 33.459 19.5233 33.5323 19.5284H33.5453C33.5782 19.5284 33.6129 19.5284 33.6483 19.5347H33.9981C34.0109 19.5347 34.0243 19.5347 34.0373 19.5284C34.0624 19.5284 34.0888 19.5284 34.1146 19.5219H34.1528C34.1792 19.5219 34.2082 19.5156 34.2366 19.5129H34.2429C34.2513 19.5129 34.2604 19.5066 34.2687 19.5066C34.2982 19.5001 34.3294 19.4975 34.3581 19.493H34.3847C34.4175 19.4867 34.4516 19.4826 34.4852 19.4763H34.5016C34.5692 19.4633 34.6352 19.4507 34.7022 19.4338C34.1477 19.2312 33.6834 18.7532 33.2838 18.0726" fill="#1969BC"/>
<path d="M25.3643 19.5348C25.7665 19.5348 26.1726 19.4954 26.5805 19.4173C26.9577 19.3491 27.3356 19.2442 27.7144 19.1124C28.0303 19.2673 28.3647 19.3811 28.7095 19.4512C28.9892 19.5076 29.2738 19.5356 29.559 19.5348H25.3643Z" fill="#1E5CB3"/>
<path d="M29.5594 19.5347C30.5524 19.5347 31.3388 19.4173 32.0069 19.097C32.4135 19.317 32.8586 19.4571 33.3181 19.5099C33.389 19.5168 33.4592 19.5233 33.5325 19.5284H33.5455C33.5784 19.5284 33.6131 19.5284 33.6486 19.5349H33.7692H29.5566L29.5594 19.5347Z" fill="#1E5CB3"/>
<path d="M33.7715 19.5348H34.0013C34.0149 19.5348 34.0277 19.5348 34.0407 19.5285C34.0657 19.5285 34.0921 19.5285 34.1189 19.522H34.1569C34.1833 19.522 34.2123 19.5157 34.2399 19.5131H34.247C34.2555 19.5131 34.2637 19.5068 34.2722 19.5068C34.3018 19.5003 34.3327 19.4978 34.3615 19.4931C34.3713 19.4931 34.379 19.4931 34.3893 19.4868C34.4222 19.4805 34.4563 19.4771 34.4902 19.4708H34.5063C34.5739 19.4579 34.6399 19.4451 34.7067 19.4283C34.9035 19.5008 35.1118 19.5373 35.3215 19.5361L33.7727 19.5424L33.7715 19.5348Z" fill="#1D60B5"/>
<path d="M32.4048 16.016V16.0095C31.9811 16.4158 31.539 16.8026 31.08 17.1687C30.8542 17.3482 30.6233 17.5212 30.3877 17.6876C30.5818 17.9193 30.7793 18.1365 30.9873 18.3346C31.3032 18.6401 31.6408 18.8976 32.0091 19.0962C32.093 19.0549 32.1766 19.0101 32.2582 18.9627C32.6336 18.7439 32.9705 18.4487 33.2888 18.061C32.9593 17.4994 32.67 16.8036 32.4064 16.0152" fill="#175FAB"/>
<path d="M45.5607 0.119873H43.0579C42.9227 0.126364 42.7913 0.130889 42.6616 0.13915C42.6003 0.270353 42.5375 0.401556 42.477 0.533545C40.4051 4.93858 38.2292 8.75585 36.0201 11.7902C34.9813 14.9814 34.219 16.9178 33.2842 18.0569C33.6838 18.7375 34.1489 19.2161 34.7016 19.4189C34.7178 19.4124 34.7308 19.4124 34.7452 19.409H34.7542C34.7639 19.409 34.7743 19.4027 34.7848 19.4027C34.8072 19.3963 34.8315 19.3923 34.8541 19.3854C34.8685 19.3789 34.8806 19.3784 34.8951 19.3736C34.9162 19.3673 34.9379 19.3628 34.9572 19.3577C34.9702 19.3512 34.983 19.3492 34.9958 19.3467C35.0282 19.3363 35.0571 19.3286 35.0879 19.319C35.1022 19.3127 35.1176 19.3071 35.1338 19.3034C35.1515 19.2971 35.1692 19.2926 35.1854 19.2849C35.2039 19.2784 35.2225 19.2751 35.2386 19.2682C35.253 19.2617 35.2682 19.2578 35.282 19.2521C35.3182 19.2391 35.3537 19.2283 35.39 19.2141C35.3998 19.2141 35.4095 19.2051 35.4199 19.2031C35.4416 19.194 35.4642 19.187 35.4859 19.1773C35.4938 19.1708 35.5037 19.1702 35.5141 19.1669C35.59 19.1354 35.668 19.1032 35.7462 19.068H35.7543C35.8679 19.0175 35.98 18.9638 36.0905 18.907C39.6823 16.904 41.4958 10.1739 47.1337 0.12066H45.559L45.5609 0.119873H45.5607Z" fill="url(#paint14_linear_890_222)"/>
<path d="M14.3809 0.561585C14.3897 0.561585 14.3978 0.561585 14.4065 0.56788C14.4284 0.56788 14.4502 0.56788 14.4719 0.574961H14.4936C14.5332 0.581256 14.5726 0.584797 14.613 0.590501C14.6203 0.590501 14.6268 0.590501 14.6331 0.596796C14.6662 0.60309 14.7001 0.608598 14.7338 0.613516C14.7411 0.613516 14.7507 0.620007 14.7588 0.620007C14.8363 0.63535 14.9153 0.65148 14.991 0.671347C14.998 0.671347 15.0055 0.677839 15.0118 0.677839C15.0442 0.68551 15.0731 0.695149 15.1054 0.704197C15.1153 0.704197 15.1222 0.710492 15.1311 0.712065C15.1691 0.721704 15.2046 0.731343 15.2414 0.743538C15.2432 0.743538 15.2454 0.743538 15.2497 0.749833C15.2812 0.759472 15.3133 0.771667 15.3462 0.782683C15.3595 0.788977 15.3715 0.791731 15.3835 0.794879C15.4062 0.804714 15.4312 0.814156 15.4529 0.823204C15.4657 0.823204 15.4785 0.832253 15.4923 0.836974C15.522 0.85035 15.5534 0.862545 15.5841 0.875331C15.6003 0.881823 15.6139 0.889101 15.6294 0.894805C15.6472 0.903854 15.6655 0.912115 15.6848 0.91841C15.701 0.926278 15.7187 0.93454 15.7341 0.941621C15.751 0.950866 15.767 0.957751 15.7833 0.966799C16.183 1.16311 16.5513 1.42453 16.8922 1.74162C17.0143 1.61332 17.1457 1.49418 17.2853 1.38519C16.5398 0.857234 15.6954 0.556274 14.721 0.556274C14.6081 0.556274 14.4954 0.562766 14.3809 0.571224" fill="#7DCBEC"/>
<path d="M16.8926 1.73224C17.1068 1.93257 17.3066 2.14764 17.4907 2.37586C17.6699 2.2503 17.852 2.12897 18.0369 2.01195C17.805 1.7788 17.5535 1.56591 17.2851 1.37561C17.1455 1.48439 17.0143 1.60354 16.8926 1.73204" fill="#5EC5ED"/>
<path d="M14.381 0.561492C14.4953 0.551854 14.6082 0.547723 14.7211 0.547723C15.6954 0.547723 16.54 0.848683 17.2854 1.37585C18.0721 0.756231 19.0229 0.539855 20.3438 0.539855H13.9473C14.0951 0.539855 14.2391 0.548706 14.381 0.561492Z" fill="url(#paint15_linear_890_222)"/>
<path d="M20.3435 0.539816C19.0226 0.539816 18.0718 0.756193 17.2852 1.37582C17.5531 1.56626 17.8044 1.77907 18.0363 2.01196C19.1314 1.317 20.2162 0.856709 21.2858 0.655676C21.6867 0.579589 22.0937 0.540803 22.5017 0.539816H20.3435Z" fill="url(#paint16_linear_890_222)"/>
<path d="M36.0228 11.7965C36.591 10.0478 37.2415 7.92474 38.048 5.34967C38.7752 3.02952 40.062 1.29517 42.4789 0.538241C42.5427 0.408612 42.603 0.275049 42.6651 0.144043C38.7251 0.379697 36.8836 2.38039 35.9568 5.34317C34.3362 10.5158 33.3545 13.8688 32.4092 16.0054C33.6166 14.8535 34.8237 13.4392 36.0228 11.7965Z" fill="url(#paint17_linear_890_222)"/>
<path d="M41.8025 18.1567H41.356V19.5421H41.1739V18.1567H40.7256V17.9919H41.8023L41.8025 18.1567ZM43.6306 19.5417H43.4493V18.5008C43.4493 18.4187 43.4556 18.3182 43.4641 18.1998C43.4454 18.2706 43.43 18.3198 43.4158 18.3513L42.8871 19.5417H42.7984L42.2684 18.3601C42.2526 18.3273 42.2372 18.274 42.2205 18.2H42.2142C42.2205 18.2624 42.2226 18.3633 42.2226 18.5033V19.5419H42.0484V17.9917H42.2887L42.7649 19.0736C42.801 19.1548 42.8237 19.2176 42.8351 19.2595H42.842C42.8735 19.1741 42.8995 19.1106 42.9169 19.0687L43.403 17.9917H43.6318V19.5417H43.6306Z" fill="white"/>
<defs>
<linearGradient id="paint0_linear_890_222" x1="466.939" y1="-308.702" x2="466.939" y2="2077.41" gradientUnits="userSpaceOnUse">
<stop stop-color="#0994DC"/>
<stop offset="0.35001" stop-color="#66CEF5"/>
<stop offset="0.84616" stop-color="#127BCA"/>
<stop offset="1" stop-color="#127BCA"/>
</linearGradient>
<linearGradient id="paint1_linear_890_222" x1="489.941" y1="-317.181" x2="489.941" y2="2129.71" gradientUnits="userSpaceOnUse">
<stop stop-color="#0E76BC"/>
<stop offset="0.36" stop-color="#36AEE8"/>
<stop offset="0.84616" stop-color="#00ADEF"/>
<stop offset="1" stop-color="#00ADEF"/>
</linearGradient>
<linearGradient id="paint2_linear_890_222" x1="471.283" y1="1844.25" x2="471.283" y2="-102.739" gradientUnits="userSpaceOnUse">
<stop stop-color="#1C63B7"/>
<stop offset="0.5" stop-color="#33BDF2"/>
<stop offset="1" stop-color="#33BDF2" stop-opacity="0.42"/>
</linearGradient>
<linearGradient id="paint3_linear_890_222" x1="465.708" y1="-331.771" x2="465.708" y2="2208.76" gradientUnits="userSpaceOnUse">
<stop stop-color="#166AB8"/>
<stop offset="0.39999" stop-color="#36AEE8"/>
<stop offset="0.84616" stop-color="#0798DD"/>
<stop offset="1" stop-color="#0798DD"/>
</linearGradient>
<linearGradient id="paint4_linear_890_222" x1="593.805" y1="-352.586" x2="593.805" y2="2348.94" gradientUnits="userSpaceOnUse">
<stop stop-color="#124379"/>
<stop offset="0.39" stop-color="#1487CB"/>
<stop offset="0.78023" stop-color="#165197"/>
<stop offset="1" stop-color="#165197"/>
</linearGradient>
<linearGradient id="paint5_linear_890_222" x1="13.7666" y1="306.838" x2="17.5933" y2="306.838" gradientUnits="userSpaceOnUse">
<stop stop-color="#33BDF2" stop-opacity="0.698"/>
<stop offset="1" stop-color="#1DACD8"/>
</linearGradient>
<linearGradient id="paint6_linear_890_222" x1="814.652" y1="1838.05" x2="814.652" y2="-58.5999" gradientUnits="userSpaceOnUse">
<stop stop-color="#136AB4"/>
<stop offset="0.6" stop-color="#59CAF5" stop-opacity="0.549"/>
<stop offset="1" stop-color="#59CAF5" stop-opacity="0.235"/>
</linearGradient>
<linearGradient id="paint7_linear_890_222" x1="0.174284" y1="975.813" x2="1419.43" y2="975.813" gradientUnits="userSpaceOnUse">
<stop stop-color="#05A1E6" stop-opacity="0.247"/>
<stop offset="1" stop-color="#05A1E6"/>
</linearGradient>
<linearGradient id="paint8_linear_890_222" x1="486.493" y1="1806.14" x2="486.493" y2="-135.884" gradientUnits="userSpaceOnUse">
<stop stop-color="#318ED5"/>
<stop offset="1" stop-color="#38A7E4"/>
</linearGradient>
<linearGradient id="paint9_linear_890_222" x1="454.105" y1="1033.65" x2="454.105" y2="-854.07" gradientUnits="userSpaceOnUse">
<stop stop-color="#05A1E6"/>
<stop offset="1" stop-color="#05A1E6" stop-opacity="0.549"/>
</linearGradient>
<linearGradient id="paint10_linear_890_222" x1="522.592" y1="1599.38" x2="522.592" y2="4.21228" gradientUnits="userSpaceOnUse">
<stop stop-color="#1959A6"/>
<stop offset="0.5" stop-color="#05A1E6"/>
<stop offset="0.91759" stop-color="#7EC5EA"/>
<stop offset="1" stop-color="#7EC5EA"/>
</linearGradient>
<linearGradient id="paint11_linear_890_222" x1="858.829" y1="1842.27" x2="318.891" y2="189.215" gradientUnits="userSpaceOnUse">
<stop stop-color="#165096"/>
<stop offset="1" stop-color="#0D82CA"/>
</linearGradient>
<linearGradient id="paint12_linear_890_222" x1="358.841" y1="867.281" x2="358.841" y2="-36.5976" gradientUnits="userSpaceOnUse">
<stop stop-color="#05A1E6"/>
<stop offset="0.87363" stop-color="#0495D6"/>
<stop offset="1" stop-color="#0495D6"/>
</linearGradient>
<linearGradient id="paint13_linear_890_222" x1="810.867" y1="-78.7198" x2="-30.5305" y2="1792.83" gradientUnits="userSpaceOnUse">
<stop stop-color="#38A7E4" stop-opacity="0.329"/>
<stop offset="0.96153" stop-color="#0E88D3"/>
<stop offset="1" stop-color="#0E88D3"/>
</linearGradient>
<linearGradient id="paint14_linear_890_222" x1="725.994" y1="-5.59263" x2="725.994" y2="1966.34" gradientUnits="userSpaceOnUse">
<stop stop-color="#168CD4"/>
<stop offset="0.5" stop-color="#1C87CC"/>
<stop offset="1" stop-color="#154B8D"/>
</linearGradient>
<linearGradient id="paint15_linear_890_222" x1="120.603" y1="-170.476" x2="129.136" y2="36.3769" gradientUnits="userSpaceOnUse">
<stop stop-color="#97D6EE"/>
<stop offset="0.70329" stop-color="#55C1EA"/>
<stop offset="1" stop-color="#55C1EA"/>
</linearGradient>
<linearGradient id="paint16_linear_890_222" x1="53.2271" y1="-7.26256" x2="91.7858" y2="-226.355" gradientUnits="userSpaceOnUse">
<stop stop-color="#7ACCEC"/>
<stop offset="1" stop-color="#3FB7ED"/>
</linearGradient>
<linearGradient id="paint17_linear_890_222" x1="545.175" y1="101.07" x2="545.175" y2="2029.78" gradientUnits="userSpaceOnUse">
<stop stop-color="#1DA7E7"/>
<stop offset="1" stop-color="#37ABE7" stop-opacity="0"/>
</linearGradient>
</defs>
</svg>
