<svg width="34" height="39" viewBox="0 0 34 39" fill="none" xmlns="http://www.w3.org/2000/svg">
<path d="M16.7658 38.3752C16.2634 38.3752 15.7609 38.2403 15.326 37.9928L10.7364 35.2781C10.054 34.8956 10.384 34.7606 10.609 34.6781C11.3364 34.4531 12.0338 34.1307 12.6787 33.7332C12.7912 33.6807 12.9187 33.6882 13.0237 33.7557L16.5484 35.848C16.6833 35.9155 16.8408 35.9155 16.9758 35.848L30.7144 27.9138C30.8494 27.8313 30.9244 27.6888 30.9244 27.5388V11.6929C30.9244 11.5429 30.8419 11.4004 30.7144 11.318L16.9758 3.39124C16.8483 3.31625 16.6833 3.31625 16.5559 3.39124L2.82473 11.3105C2.68974 11.3854 2.60725 11.5279 2.60725 11.6854V27.5388C2.60725 27.6888 2.68974 27.8313 2.81723 27.9063L6.58185 30.0811C8.62165 31.101 9.87403 29.9011 9.87403 28.6862V13.0428C9.87403 12.8253 10.0465 12.6528 10.264 12.6453C10.264 12.6453 10.264 12.6453 10.2715 12.6453H12.0113C12.2288 12.6453 12.4088 12.8178 12.4088 13.0353V28.6937C12.4088 31.4159 10.9239 32.9833 8.33668 32.9833C7.21929 33.0058 6.1244 32.7058 5.172 32.1209L1.56486 30.0436C0.672445 29.5261 0.125 28.5737 0.125 27.5388V11.6854C0.125 10.6505 0.672445 9.69811 1.56486 9.18066L15.3185 1.24646C16.2184 0.751506 17.3058 0.751506 18.2057 1.24646L31.9368 9.18816C32.8292 9.70561 33.3767 10.658 33.3767 11.6929V27.5463C33.3767 28.5737 32.8217 29.5261 31.9368 30.0511L18.1982 37.9853C17.7557 38.2403 17.2608 38.3752 16.7508 38.3677" fill="#90C53F"/>
<path d="M20.9495 27.5919C14.8226 27.5919 13.5327 24.7797 13.5327 22.4175C13.5327 22.1925 13.7127 22.0125 13.9377 22.0125H15.7525C15.955 22.0125 16.12 22.155 16.15 22.3575C16.4274 24.2023 17.2373 25.1322 20.942 25.1322C23.8967 25.1322 25.1491 24.4648 25.1491 22.8974C25.1491 21.9975 24.7891 21.3301 20.207 20.8801C16.3674 20.5052 14.0052 19.6577 14.0052 16.5905C14.0052 13.7633 16.3899 12.0835 20.3795 12.0835C24.8641 12.0835 27.0839 13.6433 27.3688 16.988C27.3763 17.1005 27.3388 17.213 27.2563 17.303C27.1814 17.3855 27.0689 17.4305 26.9564 17.4305H25.1341C24.9466 17.4305 24.7816 17.303 24.7441 17.1155C24.3091 15.1732 23.2442 14.5582 20.3645 14.5582C17.1399 14.5582 16.7649 15.6831 16.7649 16.5231C16.7649 17.543 17.2073 17.8429 21.5569 18.4129C25.8615 18.9828 27.9088 19.7927 27.9088 22.8149C27.9088 25.8371 25.3665 27.6144 20.927 27.6144" fill="#90C53F"/>
</svg>
