<svg width="48" height="48" viewBox="0 0 48 48" fill="none" xmlns="http://www.w3.org/2000/svg">
<g clip-path="url(#clip0_890_211)">
<path d="M44.5815 28.4096V19.5876C46.5602 18.9857 48 17.1466 48 14.9713C48 12.3068 45.8399 10.1468 43.1753 10.1468C41.8379 10.1468 40.6277 10.691 39.7538 11.5698L28.7378 5.7405C28.7948 5.44387 28.8247 5.13769 28.8247 4.82447C28.8247 2.16 26.6647 0 24 0C21.3353 0 19.1752 2.16 19.1752 4.82447C19.1752 5.13769 19.2052 5.44397 19.2622 5.7405L8.24616 11.5698C7.37231 10.6909 6.16209 10.1468 4.82475 10.1468C2.16009 10.1468 0 12.3068 0 14.9713C0 17.1467 1.43981 18.9857 3.4185 19.5876V28.4096C1.43981 29.0115 0 30.8506 0 33.0259C0 35.6903 2.16009 37.8503 4.82475 37.8503C6.16191 37.8503 7.37194 37.3064 8.24578 36.4278L19.2623 42.2588C19.2052 42.5557 19.1753 42.862 19.1753 43.1755C19.1753 45.84 21.3353 48 24 48C26.6647 48 28.8247 45.84 28.8247 43.1755C28.8247 42.8621 28.7948 42.5557 28.7378 42.2589L39.7543 36.4278C40.6282 37.3064 41.8383 37.8503 43.1753 37.8503C45.84 37.8503 48.0001 35.6903 48.0001 33.0259C48 30.8506 46.5602 29.0115 44.5815 28.4096ZM20.5786 8.22591C21.4524 9.10481 22.6627 9.64884 24 9.64884C25.3373 9.64884 26.5476 9.10472 27.4214 8.22591L38.4375 14.0552C38.3805 14.3518 38.3506 14.658 38.3506 14.9712C38.3506 15.2068 38.3675 15.4385 38.4002 15.665L27.5766 20.7606C26.6938 19.7862 25.4183 19.1742 24 19.1742C22.5817 19.1742 21.3062 19.7862 20.4234 20.7606L9.59991 15.6651C9.63253 15.4385 9.64941 15.2069 9.64941 14.9713C9.64941 14.6581 9.61959 14.3518 9.5625 14.0553L20.5786 8.22591ZM9.56241 33.9426C9.6195 33.6457 9.64941 33.3394 9.64941 33.0259C9.64941 30.8506 8.20959 29.0115 6.231 28.4096V19.5876C7.07616 19.3305 7.82297 18.8476 8.40131 18.2093L19.2248 23.3048C19.1922 23.5314 19.1753 23.763 19.1753 23.9986C19.1753 26.1739 20.6152 28.013 22.5938 28.6148V38.5593C21.8226 38.7939 21.1332 39.2165 20.5791 39.7737L9.56241 33.9426ZM27.421 39.7737C26.8669 39.2165 26.1775 38.7939 25.4062 38.5593V28.6148C27.3849 28.013 28.8247 26.1739 28.8247 23.9986C28.8247 23.763 28.8079 23.5313 28.7752 23.3048L39.5987 18.2093C40.177 18.8477 40.9238 19.3305 41.769 19.5876V28.4096C39.7904 29.0116 38.3506 30.8506 38.3506 33.0259C38.3506 33.3393 38.3805 33.6457 38.4376 33.9426L27.421 39.7737Z" fill="#492CFF"/>
</g>
<defs>
<clipPath id="clip0_890_211">
<rect width="48" height="48" fill="white"/>
</clipPath>
</defs>
</svg>
