<svg width="37" height="33" viewBox="0 0 37 33" fill="none" xmlns="http://www.w3.org/2000/svg">
<path d="M18.625 19.9653C20.4695 19.9653 21.9648 18.47 21.9648 16.6255C21.9648 14.7809 20.4695 13.2856 18.625 13.2856C16.7805 13.2856 15.2852 14.7809 15.2852 16.6255C15.2852 18.47 16.7805 19.9653 18.625 19.9653Z" fill="#61DAFB"/>
<path d="M31.3106 11.1174C30.666 10.8831 29.9922 10.6487 29.2891 10.4436C29.4648 9.74048 29.6113 9.03735 29.7285 8.36353C30.3438 4.49634 29.6699 1.77173 27.7949 0.717041C27.2383 0.394775 26.623 0.248291 25.9199 0.248291C23.8691 0.248291 21.2617 1.77173 18.625 4.32056C15.9883 1.77173 13.3809 0.248291 11.3301 0.248291C10.627 0.248291 10.0117 0.394775 9.45508 0.717041C7.58008 1.80103 6.90625 4.52563 7.52149 8.36353C7.63867 9.03735 7.78516 9.74048 7.96094 10.4436C7.25781 10.6487 6.58399 10.8538 5.93945 11.1174C2.27734 12.5237 0.285156 14.4573 0.285156 16.6252C0.285156 18.7932 2.30664 20.7268 5.93945 22.1331C6.58399 22.3674 7.25781 22.6018 7.96094 22.8069C7.78516 23.51 7.63867 24.2131 7.52149 24.887C6.90625 28.7542 7.58008 31.4788 9.45508 32.5334C10.0117 32.8557 10.627 33.0022 11.3301 33.0022C13.4102 33.0022 16.0176 31.4788 18.625 28.9299C21.2617 31.4788 23.8691 33.0022 25.9199 33.0022C26.623 33.0022 27.2383 32.8557 27.7949 32.5334C29.6699 31.4495 30.3438 28.7249 29.7285 24.887C29.6113 24.2131 29.4648 23.51 29.2891 22.8069C29.9922 22.6018 30.666 22.3967 31.3106 22.1331C34.9727 20.7268 36.9648 18.7932 36.9648 16.6252C36.9648 14.4573 34.9727 12.5237 31.3106 11.1174ZM26.9746 2.18188C28.1758 2.88501 28.5859 5.05298 28.0879 8.12915C28 8.74438 27.8535 9.38892 27.6777 10.0627C26.1543 9.71118 24.543 9.47681 22.8438 9.33032C21.8477 7.92407 20.8223 6.66431 19.7969 5.52173C21.9648 3.38306 24.1621 1.91821 25.9492 1.91821C26.3301 1.91821 26.6816 2.0061 26.9746 2.18188ZM23.6934 19.5549C23.166 20.4924 22.5508 21.4299 21.9062 22.3674C20.8223 22.4553 19.7383 22.4846 18.625 22.4846C17.4824 22.4846 16.3984 22.4553 15.3438 22.3674C14.6992 21.4299 14.1133 20.4924 13.5859 19.5549C13.0293 18.5881 12.502 17.592 12.0332 16.6252C12.502 15.6584 13.0293 14.6624 13.5859 13.6956C14.1133 12.7581 14.7285 11.8206 15.373 10.8831C16.457 10.7952 17.541 10.7659 18.6543 10.7659C19.7969 10.7659 20.8809 10.7952 21.9355 10.8831C22.5801 11.8206 23.166 12.7581 23.6934 13.6956C24.25 14.6624 24.7773 15.6584 25.2461 16.6252C24.748 17.592 24.25 18.5588 23.6934 19.5549ZM26.125 18.5881C26.5645 19.6135 26.916 20.6096 27.2383 21.6057C26.2422 21.8401 25.1875 22.0159 24.0742 22.1624C24.4258 21.6057 24.8066 21.0198 25.1289 20.4045C25.4805 19.7893 25.8027 19.1741 26.125 18.5881ZM18.625 26.5276C17.9219 25.7659 17.248 24.9456 16.6035 24.0959C17.2773 24.1252 17.9512 24.1545 18.625 24.1545C19.2988 24.1545 19.9727 24.1252 20.6465 24.0959C20.002 24.9456 19.3281 25.7659 18.625 26.5276ZM13.1758 22.1331C12.0625 21.9866 11.0078 21.8108 10.0117 21.5764C10.334 20.6096 10.6855 19.5842 11.125 18.5588C11.4473 19.1448 11.7695 19.76 12.1211 20.3459C12.4727 20.9905 12.8242 21.5471 13.1758 22.1331ZM11.125 14.6624C10.6855 13.637 10.334 12.6409 10.0117 11.6448C11.0078 11.4104 12.0625 11.2346 13.1758 11.0881C12.8242 11.6448 12.4434 12.2307 12.1211 12.8459C11.7695 13.4612 11.4473 14.0764 11.125 14.6624ZM18.625 6.7229C19.3281 7.48462 20.002 8.30493 20.6465 9.15454C19.9727 9.12524 19.2988 9.09595 18.625 9.09595C17.9512 9.09595 17.2773 9.12524 16.6035 9.15454C17.248 8.30493 17.9219 7.48462 18.625 6.7229ZM25.1289 12.8752L24.0742 11.1174C25.1875 11.2639 26.2422 11.4397 27.2383 11.6741C26.916 12.6409 26.5645 13.6663 26.125 14.6917C25.8027 14.0764 25.4805 13.4612 25.1289 12.8752ZM9.16211 8.12915C8.66406 5.05298 9.07422 2.88501 10.2754 2.18188C10.5684 2.0061 10.9199 1.91821 11.3008 1.91821C13.0586 1.91821 15.2559 3.35376 17.4531 5.52173C16.4277 6.63501 15.4023 7.92407 14.4063 9.33032C12.707 9.47681 11.0957 9.74048 9.57227 10.0627C9.39649 9.38892 9.2793 8.74438 9.16211 8.12915ZM1.92578 16.6252C1.92578 15.2483 3.5957 13.7834 6.52539 12.6995C7.11133 12.4651 7.75586 12.26 8.40039 12.0842C8.86914 13.5491 9.45508 15.1018 10.1582 16.6545C9.45508 18.2073 8.83984 19.7307 8.40039 21.1956C4.35742 20.0237 1.92578 18.2659 1.92578 16.6252ZM10.2754 31.0686C9.07422 30.3655 8.66406 28.1975 9.16211 25.1213C9.25 24.5061 9.39649 23.8616 9.57227 23.1877C11.0957 23.5393 12.707 23.7737 14.4063 23.9202C15.4023 25.3264 16.4277 26.5862 17.4531 27.7288C15.2852 29.8674 13.0879 31.3323 11.3008 31.3323C10.9199 31.3323 10.5684 31.2444 10.2754 31.0686ZM28.0879 25.1213C28.5859 28.1975 28.1758 30.3655 26.9746 31.0686C26.6816 31.2444 26.3301 31.3323 25.9492 31.3323C24.1914 31.3323 21.9941 29.8967 19.7969 27.7288C20.8223 26.6155 21.8477 25.3264 22.8438 23.9202C24.543 23.7737 26.1543 23.51 27.6777 23.1877C27.8535 23.8616 27.9707 24.5061 28.0879 25.1213ZM30.7246 20.551C30.1387 20.7854 29.4941 20.9905 28.8496 21.1663C28.3809 19.7014 27.7949 18.1487 27.0918 16.5959C27.7949 15.0432 28.4102 13.5198 28.8496 12.0549C32.8926 13.2268 35.3242 14.9846 35.3242 16.6252C35.3242 18.0022 33.625 19.467 30.7246 20.551Z" fill="#61DAFB"/>
</svg>
