<svg width="38" height="39" viewBox="0 0 38 39" fill="none" xmlns="http://www.w3.org/2000/svg">
<path d="M18.3243 0.875063C16.7949 0.882169 15.3344 1.0126 14.0493 1.24001C10.2635 1.90883 9.57612 3.30875 9.57612 5.89043V9.30004H18.5224V10.4366H9.57612H6.21864C3.61859 10.4366 1.34192 11.9994 0.629799 14.9723C-0.191617 18.38 -0.228052 20.5064 0.629799 24.0646C1.26574 26.7132 2.78444 28.6003 5.38449 28.6003H8.46044V24.513C8.46044 21.5601 11.0153 18.9554 14.0493 18.9554H22.9852C25.4726 18.9554 27.4583 16.9073 27.4583 14.4092V5.89043C27.4583 3.46592 25.413 1.64465 22.9852 1.24001C21.4483 0.984178 19.8537 0.867956 18.3243 0.875063ZM13.4862 3.61735C14.4103 3.61735 15.165 4.38432 15.165 5.32737C15.165 6.26708 14.4103 7.02696 13.4862 7.02696C12.5588 7.02696 11.8075 6.26707 11.8075 5.32737C11.8075 4.38432 12.5588 3.61735 13.4862 3.61735Z" fill="url(#paint0_linear_371_348)"/>
<path d="M28.5736 10.4365V14.4092C28.5736 17.4891 25.9624 20.0815 22.9847 20.0815H14.0488C11.6012 20.0815 9.57568 22.1763 9.57568 24.6276V33.1464C9.57568 35.5709 11.684 36.997 14.0488 37.6926C16.8807 38.5253 19.5964 38.6757 22.9847 37.6926C25.237 37.0405 27.4579 35.7281 27.4579 33.1464V29.7368H18.522V28.6003H27.4579H31.9311C34.5311 28.6003 35.5 26.7867 36.4042 24.0645C37.3383 21.2622 37.2985 18.5672 36.4042 14.9722C35.7617 12.3839 34.5344 10.4365 31.9311 10.4365H28.5736ZM23.5478 32.0099C24.4752 32.0099 25.2265 32.7698 25.2265 33.7095C25.2265 34.6525 24.4752 35.4195 23.5478 35.4195C22.6237 35.4195 21.8691 34.6525 21.8691 33.7095C21.8691 32.7698 22.6237 32.0099 23.5478 32.0099Z" fill="url(#paint1_linear_371_348)"/>
<defs>
<linearGradient id="paint0_linear_371_348" x1="-1.11405e-07" y1="0.874756" x2="20.6292" y2="18.4537" gradientUnits="userSpaceOnUse">
<stop stop-color="#5A9FD4"/>
<stop offset="1" stop-color="#306998"/>
</linearGradient>
<linearGradient id="paint1_linear_371_348" x1="23.3328" y1="33.4228" x2="15.9318" y2="23.0518" gradientUnits="userSpaceOnUse">
<stop stop-color="#FFD43B"/>
<stop offset="1" stop-color="#FFE873"/>
</linearGradient>
</defs>
</svg>
