<svg width="48" height="29" viewBox="0 0 48 29" fill="none" xmlns="http://www.w3.org/2000/svg">
<path d="M13.5268 10.5406C13.5145 11.0219 13.5737 11.5023 13.7025 11.9662C13.8444 12.3622 14.0151 12.7472 14.2134 13.1182C14.2843 13.2281 14.323 13.3557 14.325 13.4865C14.3152 13.5847 14.2827 13.6792 14.2301 13.7627C14.1774 13.8461 14.106 13.9161 14.0215 13.9671L13.0156 14.6399C12.8944 14.7275 12.75 14.7776 12.6006 14.7839C12.4186 14.7713 12.2479 14.6913 12.1218 14.5596C11.9061 14.3277 11.7133 14.0756 11.5458 13.8069C11.3863 13.5347 11.2264 13.2309 11.0508 12.8619C10.4891 13.5642 9.77404 14.1286 8.96044 14.5117C8.14685 14.8949 7.25631 15.0866 6.35712 15.0722C5.01613 15.0722 3.94514 14.6878 3.1643 13.9203C2.76681 13.5163 2.4569 13.0346 2.25392 12.5055C2.05094 11.9763 1.95925 11.411 1.98459 10.8448C1.96146 10.2207 2.08016 9.59958 2.33176 9.02803C2.58337 8.45648 2.96132 7.94944 3.43718 7.54506C4.41097 6.71202 5.70517 6.29551 7.34856 6.29551C7.91479 6.30016 8.48007 6.34297 9.04054 6.42367C9.6313 6.50359 10.2379 6.63174 10.8765 6.7761V5.60683C10.8765 4.38932 10.6209 3.54044 10.1263 3.04401C9.61654 2.54757 8.75255 2.30745 7.52423 2.30745C6.94329 2.3074 6.36445 2.37726 5.80021 2.51553C5.21331 2.65587 4.63717 2.83789 4.07618 3.06021C3.89466 3.14165 3.70803 3.21116 3.51746 3.26829C3.43478 3.29557 3.34882 3.31167 3.26186 3.31617C3.0383 3.31617 2.9267 3.15597 2.9267 2.81973V2.03493C2.90952 1.84127 2.94825 1.64673 3.0383 1.47442C3.15866 1.32857 3.31189 1.21333 3.48542 1.13818C4.12552 0.820649 4.80053 0.579011 5.49673 0.418185C6.3101 0.208816 7.14733 0.106552 7.98719 0.113987C9.8869 0.113987 11.2758 0.545984 12.1696 1.40998C13.0477 2.27397 13.4948 3.58832 13.4948 5.35015V10.5406H13.5268ZM7.04688 12.9753C7.60704 12.9692 8.16246 12.8719 8.69135 12.6873C9.2777 12.4837 9.80058 12.1302 10.208 11.662C10.4655 11.3666 10.6513 11.0157 10.7509 10.6367C10.8605 10.1804 10.9141 9.71244 10.9104 9.24317V8.57033C10.4263 8.45215 9.93589 8.36129 9.44158 8.29817C8.94393 8.23477 8.44279 8.20267 7.94111 8.20205C6.87156 8.20205 6.08928 8.41013 5.56261 8.84285C5.29808 9.06802 5.08965 9.35174 4.95386 9.6715C4.81808 9.99125 4.75866 10.3382 4.78033 10.685C4.75595 10.9932 4.79563 11.3031 4.89686 11.5952C4.9981 11.8873 5.1587 12.1553 5.36857 12.3823C5.59168 12.5918 5.85587 12.7527 6.14441 12.8547C6.43295 12.9567 6.73953 12.9976 7.04472 12.9749L7.04688 12.9753ZM19.866 14.7051C19.6511 14.7271 19.4355 14.6702 19.2594 14.5449C19.0923 14.3715 18.9763 14.1554 18.9243 13.9203L15.1709 1.5385C15.0981 1.33125 15.0498 1.11619 15.0269 0.897702C15.0192 0.844831 15.0235 0.790881 15.0398 0.739963C15.056 0.689046 15.0836 0.642507 15.1206 0.603894C15.1575 0.565281 15.2028 0.535615 15.253 0.517157C15.3031 0.498698 15.3568 0.491936 15.41 0.497384H16.9749C17.1952 0.470368 17.4175 0.527308 17.5977 0.656863C17.7589 0.832216 17.8692 1.04813 17.917 1.28146L20.599 11.8852L23.0891 1.28218C23.1217 1.04693 23.2279 0.828043 23.3926 0.656863C23.584 0.539239 23.8069 0.483313 24.0312 0.496664H25.3085C25.5336 0.472962 25.7598 0.529714 25.9471 0.656863C26.1136 0.826467 26.2195 1.04626 26.2484 1.28218L28.7709 12.0141L31.5343 1.28218C31.5848 1.04962 31.6948 0.834151 31.8536 0.656863C32.0391 0.539196 32.2572 0.483362 32.4764 0.497384H33.961C34.0153 0.490116 34.0704 0.495472 34.1223 0.513037C34.1741 0.530601 34.2212 0.559899 34.2598 0.598646C34.2984 0.637392 34.3276 0.68454 34.345 0.736414C34.3625 0.788287 34.3677 0.843485 34.3603 0.897702C34.3565 0.983864 34.3458 1.06958 34.3282 1.15402C34.3033 1.29057 34.2659 1.42457 34.2166 1.55434L30.369 13.9361C30.321 14.1727 30.2044 14.3899 30.0338 14.5607C29.8535 14.6766 29.6412 14.7326 29.4272 14.7209H28.0542C27.8291 14.7446 27.6028 14.6878 27.4155 14.5607C27.2487 14.3849 27.1424 14.1604 27.1121 13.9199L24.6374 3.58796L22.1805 13.9048C22.1432 14.1432 22.0378 14.3657 21.877 14.5456C21.6887 14.6705 21.4633 14.727 21.2383 14.7058L19.866 14.7051ZM40.3801 15.137C39.5522 15.138 38.727 15.0414 37.9217 14.8491C37.2837 14.7189 36.6661 14.5034 36.0857 14.2083C35.88 14.1109 35.7078 13.9548 35.5907 13.7597C35.5286 13.6183 35.496 13.4656 35.495 13.3111V12.4947C35.495 12.1584 35.6228 11.9982 35.8622 11.9982C35.9601 11.9984 36.0574 12.0146 36.1502 12.0461C36.2459 12.0781 36.3896 12.1422 36.5494 12.2063C37.1132 12.4551 37.7018 12.643 38.3055 12.7668C38.9307 12.8942 39.5671 12.9586 40.2052 12.9591C41.0164 13.0069 41.8245 12.8236 42.5358 12.4306C42.7959 12.2725 43.0097 12.0486 43.1555 11.7814C43.3013 11.5141 43.3739 11.2132 43.366 10.9089C43.3715 10.7027 43.3362 10.4975 43.2621 10.305C43.1879 10.1125 43.0764 9.93665 42.934 9.78748C42.4674 9.38997 41.9157 9.10496 41.3215 8.95445L39.0067 8.23445C37.8414 7.86618 36.9792 7.3215 36.4508 6.60078C35.9366 5.93535 35.6561 5.119 35.6526 4.27808C35.6399 3.65796 35.7888 3.04521 36.0846 2.50005C36.3695 1.98512 36.7614 1.53729 37.2341 1.18678C37.7314 0.809027 38.2943 0.526591 38.8944 0.353745C39.548 0.164859 40.2258 0.0731581 40.9061 0.0815871C41.2636 0.078984 41.621 0.100392 41.9756 0.145667C42.3428 0.193546 42.678 0.257626 43.0132 0.321706C43.3325 0.401625 43.6356 0.481904 43.9232 0.578024C44.1563 0.650234 44.3811 0.746765 44.5939 0.866022C44.782 0.961197 44.9457 1.09813 45.0727 1.26634C45.1768 1.42222 45.2273 1.6077 45.2167 1.79482V2.54757C45.2167 2.88381 45.0889 3.06021 44.8495 3.06021C44.6368 3.03594 44.4308 2.97066 44.2429 2.86797C43.2785 2.44022 42.2327 2.2271 41.1779 2.24337C40.4425 2.19979 39.7089 2.35471 39.0539 2.69193C38.8101 2.83781 38.6111 3.04799 38.4787 3.29944C38.3464 3.5509 38.2858 3.83393 38.3037 4.11752C38.2992 4.33006 38.3395 4.54116 38.422 4.7371C38.5045 4.93303 38.6273 5.1094 38.7825 5.25475C39.3002 5.66724 39.8983 5.96726 40.5385 6.13567L42.8065 6.85566C43.956 7.22394 44.7865 7.73658 45.2811 8.39321C45.7686 9.03815 46.0271 9.82727 46.0155 10.6356C46.0238 11.2788 45.8816 11.9151 45.6005 12.4936C45.3175 13.0414 44.9201 13.5221 44.4352 13.903C43.9085 14.3144 43.3066 14.6191 42.6632 14.8001C41.924 15.0282 41.1541 15.1416 40.3805 15.1363L40.3801 15.137Z" fill="white"/>
<path fill-rule="evenodd" clip-rule="evenodd" d="M43.3958 22.9219C38.1435 26.8142 30.5126 28.8806 23.9513 28.8806C15.1819 28.924 6.7137 25.6842 0.212688 19.7985C-0.282309 19.35 0.164808 18.7412 0.755564 19.0937C7.98587 23.2396 16.1754 25.4208 24.51 25.4206C30.7356 25.3872 36.8933 24.1243 42.6294 21.7044C43.5074 21.304 44.2577 22.2814 43.3958 22.9219Z" fill="#EC912D"/>
<path fill-rule="evenodd" clip-rule="evenodd" d="M45.5834 20.4232C44.9127 19.5592 41.1453 20.0067 39.4371 20.2152C38.9263 20.2792 38.8464 19.8307 39.3093 19.4952C42.3106 17.3809 47.2433 17.9897 47.8182 18.6942C48.3942 19.4142 47.6584 24.3645 44.849 26.7351C44.417 27.1033 44.003 26.9111 44.1945 26.4309C44.8331 24.8444 46.2537 21.2721 45.5834 20.4232Z" fill="#EC912D"/>
</svg>
