<svg width="48" height="48" viewBox="0 0 48 48" fill="none" xmlns="http://www.w3.org/2000/svg">
<g clip-path="url(#clip0_890_185)">
<path fill-rule="evenodd" clip-rule="evenodd" d="M33.8692 10.996H14.1311C13.3002 10.997 12.5036 11.3274 11.9159 11.9149C11.3282 12.5023 10.9975 13.2988 10.9961 14.1297V33.8691C10.9971 34.7001 11.3278 35.4968 11.9155 36.0843C12.5033 36.6718 13.3001 37.0021 14.1311 37.0028H33.8692C34.7002 37.0021 35.497 36.6718 36.0848 36.0843C36.6725 35.4968 37.0032 34.7001 37.0042 33.8691V14.1297C37.0029 13.2988 36.6721 12.5023 36.0844 11.9149C35.4967 11.3274 34.7001 10.997 33.8692 10.996ZM24.5326 26.747C24.564 26.7229 24.5926 26.6952 24.6177 26.6645C24.7455 26.5231 24.8167 26.3395 24.8175 26.1489C24.8167 25.9675 24.7605 25.7907 24.6563 25.6423C24.5412 25.4748 24.3681 25.3558 24.1704 25.3084L24.1356 25.3007L23.2332 22.5369C23.027 21.9233 22.8439 21.3647 22.6841 20.8611C22.5122 20.3455 22.3489 19.9025 22.1942 19.5321C22.0602 19.2051 21.8848 18.8966 21.6722 18.6143C21.3757 18.2431 21.0611 18.1644 20.8485 18.1644C20.5494 18.1644 20.2748 18.3178 20.0299 18.6195C19.8142 18.9055 19.6342 19.2168 19.4936 19.5463C19.3261 19.9167 19.1542 20.3545 18.978 20.8599C18.8018 21.3652 18.621 21.9087 18.4353 22.4905L16.3831 28.8546C16.3698 28.9191 16.3629 28.9847 16.3625 29.0506C16.3598 29.164 16.3835 29.2766 16.4319 29.3793C16.4802 29.482 16.5518 29.572 16.641 29.6422C16.7889 29.7554 16.9703 29.8161 17.1566 29.815C17.386 29.815 17.7199 29.7299 18.0074 29.3251C18.0356 29.2862 18.0566 29.2426 18.0692 29.1962L18.7705 26.9094H22.8143L23.4176 29.2852C23.4855 29.4359 23.5966 29.5631 23.7367 29.6507C23.8769 29.7384 24.0399 29.7825 24.2052 29.7776C24.7208 29.7776 25.065 29.4695 25.1075 28.9758C25.1125 28.9247 25.1077 28.873 25.0933 28.8237L24.5326 26.747ZM21.1501 21.9775C21.2893 22.3779 21.4315 22.7947 21.5768 23.2279L22.006 24.5285C22.0599 24.6921 22.111 24.8522 22.1604 25.0068L22.2136 25.1731H19.3596L20.7904 20.9385L20.8264 21.0438L20.8264 21.044C20.9247 21.3319 21.0307 21.6427 21.1501 21.9801V21.9775ZM29.5935 24.1482C29.5728 24.7987 29.5518 25.4153 29.5303 25.998C29.5097 26.5781 29.4878 27.1001 29.4659 27.5603C29.4555 27.7743 29.4426 27.9638 29.4272 28.1288L30.6905 28.1469C30.8231 28.1439 30.9548 28.1686 31.0774 28.2194C31.1999 28.2703 31.3105 28.3461 31.402 28.442C31.4748 28.5296 31.5289 28.6312 31.5608 28.7405C31.5927 28.8498 31.6019 28.9646 31.5876 29.0776C31.5834 29.1832 31.5581 29.287 31.5135 29.3828C31.4688 29.4787 31.4055 29.5647 31.3273 29.6359C31.2492 29.7072 31.1576 29.7622 31.058 29.7977C30.9585 29.8333 30.8528 29.8488 30.7472 29.8433L26.2264 29.7659C26.1826 29.7644 26.1392 29.7566 26.0975 29.7427C25.4736 29.5287 25.3963 29.1175 25.4066 28.8919C25.4066 28.4897 25.5987 28.2951 25.7598 28.2062C25.9089 28.1219 26.0771 28.0775 26.2484 28.0772C26.4692 28.0772 26.9616 28.0837 27.7256 28.0966C27.7359 27.8736 27.745 27.6119 27.7553 27.3128C27.772 26.8011 27.8004 25.9993 27.8442 24.9126L27.9731 21.2787C27.9903 20.8877 27.9989 20.544 27.9989 20.2475V19.9897H27.6882L26.8207 20.0026C26.6733 20.0036 26.5261 20.0131 26.3798 20.0309C26.1475 20.0636 25.9115 20.0064 25.7198 19.8711C25.5407 19.7447 25.3602 19.4805 25.4891 18.9468C25.6412 18.341 26.4907 18.2791 27.3814 18.3023C29.9054 18.2378 30.2148 18.2636 30.3166 18.2726C30.5848 18.2946 30.7781 18.3152 30.907 18.3332C31.1129 18.3669 31.2998 18.4734 31.4338 18.6333C31.5677 18.7933 31.6397 18.996 31.6366 19.2046C31.5709 19.7615 31.2035 20.0335 30.7343 20.0103C30.5035 19.9935 30.2316 19.9781 29.9209 19.9665L29.7121 19.9587L29.6966 20.651L29.5935 24.1482Z" fill="#7D86FF"/>
<path d="M46.4621 21.1744C46.6908 21.1744 46.9102 21.0835 47.0719 20.9218C47.2336 20.7601 47.3245 20.5407 47.3245 20.312C47.3245 20.0833 47.2336 19.8639 47.0719 19.7022C46.9102 19.5405 46.6908 19.4496 46.4621 19.4496H41.284V13.7997H46.4621C46.5754 13.7997 46.6875 13.7774 46.7921 13.734C46.8968 13.6907 46.9918 13.6272 47.0719 13.5471C47.152 13.467 47.2155 13.3719 47.2589 13.2673C47.3022 13.1627 47.3245 13.0505 47.3245 12.9373C47.3245 12.824 47.3022 12.7119 47.2589 12.6073C47.2155 12.5026 47.152 12.4076 47.0719 12.3275C46.9918 12.2474 46.8968 12.1839 46.7921 12.1405C46.6875 12.0972 46.5754 12.0749 46.4621 12.0749H41.2118C41.0522 10.7285 40.444 9.47497 39.4853 8.51624C38.5266 7.55751 37.273 6.94936 35.9266 6.78975V1.53939C35.9266 1.31068 35.8358 1.09133 35.674 0.929598C35.5123 0.76787 35.2929 0.677012 35.0642 0.677012C34.8355 0.677012 34.6162 0.76787 34.4544 0.929598C34.2927 1.09133 34.2019 1.31068 34.2019 1.53939V6.71498H28.5493V1.53939C28.5538 1.42343 28.5348 1.30774 28.4935 1.19928C28.4523 1.09081 28.3895 0.991799 28.309 0.908164C28.2286 0.824529 28.1321 0.757996 28.0253 0.712549C27.9185 0.667102 27.8036 0.643677 27.6876 0.643677C27.5715 0.643677 27.4567 0.667102 27.3499 0.712549C27.2431 0.757996 27.1466 0.824529 27.0661 0.908164C26.9856 0.991799 26.9229 1.09081 26.8816 1.19928C26.8403 1.30774 26.8214 1.42343 26.8258 1.53939V6.71498H21.1746V1.53939C21.1791 1.42343 21.1601 1.30774 21.1188 1.19928C21.0775 1.09081 21.0148 0.991799 20.9343 0.908164C20.8539 0.824529 20.7573 0.757996 20.6506 0.712549C20.5438 0.667102 20.4289 0.643677 20.3128 0.643677C20.1968 0.643677 20.0819 0.667102 19.9751 0.712549C19.8684 0.757996 19.7718 0.824529 19.6914 0.908164C19.6109 0.991799 19.5482 1.09081 19.5069 1.19928C19.4656 1.30774 19.4466 1.42343 19.4511 1.53939V6.71498H13.7999V1.53939C13.7999 1.42615 13.7776 1.314 13.7342 1.20937C13.6909 1.10475 13.6274 1.00968 13.5473 0.929598C13.4672 0.849518 13.3721 0.785996 13.2675 0.742657C13.1629 0.699318 13.0507 0.677012 12.9375 0.677012C12.8242 0.677012 12.7121 0.699318 12.6075 0.742657C12.5028 0.785996 12.4078 0.849518 12.3277 0.929598C12.2476 1.00968 12.1841 1.10475 12.1407 1.20937C12.0974 1.314 12.0751 1.42615 12.0751 1.53939V6.78717C10.7287 6.94679 9.47516 7.55493 8.51643 8.51366C7.5577 9.47239 6.94955 10.7259 6.78994 12.0723H1.5383C1.30958 12.0723 1.09023 12.1632 0.928499 12.3249C0.766771 12.4866 0.675913 12.706 0.675913 12.9347C0.675913 13.1634 0.766771 13.3828 0.928499 13.5445C1.09023 13.7062 1.30958 13.7971 1.5383 13.7971H6.71646V19.4496H1.5383C1.30958 19.4496 1.09023 19.5405 0.928499 19.7022C0.766771 19.8639 0.675913 20.0833 0.675913 20.312C0.675913 20.5407 0.766771 20.7601 0.928499 20.9218C1.09023 21.0835 1.30958 21.1744 1.5383 21.1744H6.71646V26.8244H1.5383C1.30958 26.8244 1.09023 26.9152 0.928499 27.0769C0.766771 27.2387 0.675913 27.458 0.675913 27.6867C0.675913 27.9155 0.766771 28.1348 0.928499 28.2965C1.09023 28.4583 1.30958 28.5491 1.5383 28.5491H6.71646V34.2004H1.5383C1.42233 34.1959 1.30664 34.2149 1.19818 34.2561C1.08972 34.2974 0.990701 34.3602 0.907066 34.4406C0.823431 34.5211 0.756897 34.6176 0.71145 34.7244C0.666003 34.8312 0.642578 34.9461 0.642578 35.0621C0.642578 35.1782 0.666003 35.293 0.71145 35.3998C0.756897 35.5066 0.823431 35.6031 0.907066 35.6836C0.990701 35.764 1.08972 35.8268 1.19818 35.8681C1.30664 35.9094 1.42233 35.9283 1.5383 35.9238H6.78865C6.94805 37.2704 7.55612 38.524 8.51489 39.4828C9.47366 40.4415 10.7273 41.0496 12.0738 41.209V46.4581C12.0738 46.6868 12.1647 46.9061 12.3264 47.0679C12.4881 47.2296 12.7075 47.3204 12.9362 47.3204C13.1649 47.3204 13.3843 47.2296 13.546 47.0679C13.7077 46.9061 13.7986 46.6868 13.7986 46.4581V41.2838H19.4498V46.4606C19.4453 46.5766 19.4643 46.6923 19.5056 46.8008C19.5469 46.9092 19.6096 47.0082 19.6901 47.0919C19.7705 47.1755 19.8671 47.242 19.9739 47.2875C20.0806 47.3329 20.1955 47.3564 20.3116 47.3564C20.4276 47.3564 20.5425 47.3329 20.6493 47.2875C20.7561 47.242 20.8526 47.1755 20.933 47.0919C21.0135 47.0082 21.0762 46.9092 21.1175 46.8008C21.1588 46.6923 21.1778 46.5766 21.1733 46.4606V41.2838H26.8245V46.4606C26.8201 46.5766 26.839 46.6923 26.8803 46.8008C26.9216 46.9092 26.9844 47.0082 27.0648 47.0919C27.1453 47.1755 27.2418 47.242 27.3486 47.2875C27.4554 47.3329 27.5702 47.3564 27.6863 47.3564C27.8023 47.3564 27.9172 47.3329 28.024 47.2875C28.1308 47.242 28.2273 47.1755 28.3078 47.0919C28.3882 47.0082 28.451 46.9092 28.4923 46.8008C28.5335 46.6923 28.5525 46.5766 28.548 46.4606V41.2838H34.1993V46.4606C34.1993 46.5739 34.2216 46.686 34.2649 46.7907C34.3083 46.8953 34.3718 46.9904 34.4519 47.0704C34.5319 47.1505 34.627 47.214 34.7316 47.2574C34.8363 47.3007 34.9484 47.323 35.0617 47.323C35.1749 47.323 35.287 47.3007 35.3917 47.2574C35.4963 47.214 35.5914 47.1505 35.6715 47.0704C35.7515 46.9904 35.8151 46.8953 35.8584 46.7907C35.9017 46.686 35.924 46.5739 35.924 46.4606V41.2116C37.2705 41.0522 38.5242 40.4441 39.4829 39.4853C40.4417 38.5266 41.0498 37.2729 41.2092 35.9264H46.4595C46.5755 35.9309 46.6912 35.9119 46.7997 35.8707C46.9081 35.8294 47.0071 35.7666 47.0908 35.6862C47.1744 35.6057 47.2409 35.5092 47.2864 35.4024C47.3318 35.2956 47.3553 35.1807 47.3553 35.0647C47.3553 34.9486 47.3318 34.8338 47.2864 34.727C47.2409 34.6202 47.1744 34.5237 47.0908 34.4432C47.0071 34.3628 46.9081 34.3 46.7997 34.2587C46.6912 34.2174 46.5755 34.1985 46.4595 34.2029H41.284V28.5491H46.4621C46.6908 28.5491 46.9102 28.4583 47.0719 28.2965C47.2337 28.1348 47.3245 27.9155 47.3245 27.6867C47.3245 27.458 47.2337 27.2387 47.0719 27.0769C46.9102 26.9152 46.6908 26.8244 46.4621 26.8244H41.284V21.1744H46.4621ZM39.5605 35.2149C39.5588 36.3667 39.1004 37.4709 38.2858 38.2852C37.4712 39.0996 36.3669 39.5576 35.2151 39.559H12.7854C11.6335 39.5576 10.5292 39.0996 9.71465 38.2852C8.90005 37.4709 8.44164 36.3667 8.43994 35.2149V12.7852C8.44164 11.6332 8.90001 10.5289 9.71457 9.71438C10.5291 8.89982 11.6334 8.44145 12.7854 8.43975H35.2151C36.367 8.44145 37.4713 8.89982 38.2859 9.71438C39.1004 10.5289 39.5588 11.6332 39.5605 12.7852V35.2149Z" fill="#7D86FF"/>
</g>
<defs>
<clipPath id="clip0_890_185">
<rect width="48" height="48" fill="white"/>
</clipPath>
</defs>
</svg>
